<mxfile host="app.diagrams.net" modified="2020-08-06T07:24:22.679Z" agent="5.0 (Windows NT 10.0; Win64; x64) AppleWebKit/537.36 (KHTML, like Gecko) Chrome/84.0.4147.89 Safari/537.36 Edg/84.0.522.40" etag="uKqUSozzC53ym-4n9f4B" version="13.6.0" type="github">
  <diagram id="KNv1h18L9KcLO7esSNfz" name="Page-1">
    <mxGraphModel dx="1422" dy="714" grid="1" gridSize="10" guides="1" tooltips="1" connect="1" arrows="1" fold="1" page="1" pageScale="1" pageWidth="850" pageHeight="1100" math="0" shadow="0">
      <root>
        <mxCell id="0" />
        <mxCell id="1" parent="0" />
      </root>
    </mxGraphModel>
  </diagram>
</mxfile>
